<svg width="66" height="40" viewBox="0 0 66 40" fill="none" xmlns="http://www.w3.org/2000/svg"><path d="M65.445 21.896h-4.99v4.74h4.99v-4.74zM61.344 34.44l2.28 1.342c.727.435 1.178.675 1.178 1.605 0 1.518-1.303 1.644-2.657 1.644-.599 0-1.486-.063-2.147-.173l-.062.996c.68.09 1.65.102 2.186.102 1.801 0 3.711-.427 3.711-2.593 0-1.37-.723-1.883-1.82-2.511l-2.428-1.428c-.49-.283-1.03-.651-1.03-1.518 0-1.017 1.089-1.386 2.298-1.386.77 0 1.611.083 2.276.216l.062-.95c-.727-.105-1.867-.152-2.376-.152-1.23 0-2.047.235-2.646.828-.389.368-.618.835-.618 1.47-.004 1.512 1.003 2.006 1.793 2.508zM44.42 17.573c-.922.922-1.435 2.287-1.435 4.323 0 3.221 2.167 5.105 4.987 5.105 1.697 0 3.086-.251 4.727-1.217l.086-.035.249.922h3.447v-13.39c0-3.626-3.007-4.697-6.345-4.697-2.164 0-3.377.184-5.762.734l.268 4.005c2.272-.67 3.739-.996 5.202-.996 1.832 0 2.346.588 2.346 1.51v1.848c-2.96.071-6.003.22-7.77 1.888zm7.739 4.763c-1.424.855-1.724.93-3.008.93-1.28 0-1.758-.703-1.758-1.958 0-.746.183-1.295.552-1.632.732-.703 2.747-.852 4.249-.887l-.035 3.547zM65.076 1.075h-4.325V18.79h4.325V1.075zM15.458 29.63c-1.07 0-2.104.063-3.135.278l.062.958c.836-.196 2.28-.346 3.034-.346 1.46 0 2.23.416 2.23 1.688v1.93c-.331-.004-.67-.016-1.02-.016-.51 0-1.046.016-1.618.079-.798.09-1.7.263-2.233.565-.965.541-1.264 1.342-1.264 2.507 0 1.542 1.369 2.683 2.66 2.683 1.506 0 2.319-.058 3.564-.796h.02l.07.608h.77v-7.757c-.004-1.687-1.315-2.381-3.14-2.381zm2.187 8.514c-1.031.726-2.101.95-3.408.95-.778 0-1.786-.805-1.786-1.821 0-.604.047-1.322.798-1.746.431-.27 1.14-.392 1.93-.463.583-.067 1.088-.087 1.563-.087.315 0 .618.012.926.016l-.023 3.15zM50.035 29.63c-2.688 0-4.252 1.279-4.252 5.195 0 3.903 1.564 5.175 4.233 5.175 2.68 0 4.248-1.272 4.248-5.175-.004-3.912-1.552-5.195-4.229-5.195zm0 9.506c-2.77 0-3.264-1.867-3.264-4.312 0-2.444.498-4.327 3.245-4.327 2.77 0 3.264 1.883 3.264 4.328-.004 2.448-.475 4.311-3.245 4.311zM37.146 38.548l-.046.023-2.828-8.721H33.24l3.306 10.044h1.14l3.307-10.044h-1.035l-2.813 8.698zM5.097 1.075H.106v4.732h4.99V1.075zM4.803 8.914H.473v17.718h4.33V8.914zM14.7 26.966c1.65 0 3.116-.298 4.587-1.181h.035l.253.883h3.494V0h-4.33v8.989h-.032c-.957-.22-1.583-.404-2.863-.404-5.532 0-7.45 2.809-7.45 9.023-.008 5.803 1.54 9.358 6.306 9.358zm1.14-14.615c1.315 0 1.727.075 2.898.486v9.244c-.735.514-1.684 1.075-3.264 1.075-1.758 0-2.68-1.15-2.68-5.548 0-4.625.887-5.257 3.046-5.257zM6.419 38.874H1.074l5.216-8.161v-.863H.086v.863h5.173L0 38.905v.863h6.419v-.894zM34.479 26.965c1.91 0 3.52-.22 5.579-.667l-.261-3.92c-2.202.476-3.26.778-5.318.778-2.129 0-3.486-1.118-3.486-4.52h9.61v-2.44c0-4.509-1.25-7.616-6.451-7.616-5.58 0-7.594 3.033-7.594 9.275-.004 6.297 2.458 9.11 7.92 9.11zM34 12.241c2.237 0 2.385 1.671 2.416 3.291l-5.283.044c.226-2.44.848-3.335 2.867-3.335zM25.599 32.145c.45-.758 1.439-1.601 2.49-1.601.318 0 .56.02.836.082l.062-.926c-.19-.02-.409-.043-.619-.043-1.03 0-1.785.043-2.812 1.236h-.024l-.28-1.024h-.599v9.903h.946v-7.627z" fill="#000"></path></svg>
