<svg xmlns="http://www.w3.org/2000/svg" id="Camada_2" viewBox="0 0 585.31 273.12"><defs><style>.cls-1{fill:#111827;}</style></defs><g id="Camada_1-2"><path class="cls-1" d="M225,2.32l-59.71,141.84-21.81-51.8L183.38,2.33h-37.94s-19.81,47.29-19.81,47.29L105.53,2.34h-37.94s39.93,90.03,39.93,90.03l-21.79,51.81L40.77,33.74H0s84.33,192.25,84.33,192.25l41.32-92.86,41.06,92.85L265.77,2.31h-40.77ZM396.12,144.88c-1.98,9.66-5.72,18.08-11.22,25.25-5.51,7.17-13.09,12.78-22.75,16.83-9.66,4.06-22.08,6.08-37.25,6.08h-38.34s-.02-158.96-.02-158.96h38.34c15.17,0,27.59,2.02,37.25,6.07,9.66,4.05,17.25,9.66,22.76,16.83,5.5,7.17,9.25,15.58,11.23,25.25,1.97,9.66,2.96,20.1,2.97,31.33,0,11.22-.98,21.66-2.96,31.33M582.71,142.75c-1.73-5.69-4.38-11.03-7.93-16.01-3.56-4.98-7.99-9.4-13.27-13.27-5.29-3.86-11.49-6.91-18.61-9.15-2.85-.81-7.58-2.08-14.18-3.81-6.61-1.72-13.37-3.51-20.29-5.34-6.92-1.83-13.17-3.51-18.76-5.03-5.6-1.52-8.8-2.39-9.61-2.59-7.73-2.23-13.99-5.54-18.76-9.91-4.78-4.37-7.17-10.42-7.17-18.15,0-5.49,1.27-10.07,3.81-13.73,2.54-3.66,5.74-6.56,9.61-8.69,3.86-2.14,8.13-3.66,12.81-4.58,4.68-.91,9.25-1.37,13.73-1.38,13.22,0,24.1,2.9,32.64,8.69,8.54,5.79,13.32,15.71,14.34,29.74h38.13c0-11.39-2.24-21.41-6.72-30.05-4.48-8.64-10.53-15.91-18.15-21.81-7.62-5.89-16.47-10.32-26.54-13.27C517.71,1.47,506.98,0,495.6,0c-9.76,0-19.42,1.27-28.98,3.82-9.56,2.55-18.1,6.46-25.62,11.75-7.53,5.29-13.57,11.95-18.15,19.98-1.18,2.08-2.21,4.26-3.08,6.53-1.6-2.5-3.3-4.92-5.11-7.24-7.9-10.07-18.08-18.02-30.55-23.84-12.47-5.81-27.23-8.72-44.26-8.72h-63.16s-29.1,65.72-29.1,65.72l.02,156.85h92.27c17.03-.01,31.79-2.93,44.26-8.75,12.47-5.82,22.65-13.77,30.54-23.85,7.9-10.08,13.76-21.87,17.61-35.38,3.84-13.51,5.76-27.95,5.76-43.33,0-1.97-.03-3.91-.1-5.85.94.67,1.9,1.33,2.91,1.98,6.2,3.97,13.98,7.17,23.34,9.61,15.05,4.07,27.71,7.37,37.98,9.91,10.27,2.54,19.27,5.24,27,8.08,4.47,1.63,8.59,4.42,12.36,8.39,3.76,3.97,5.65,10.12,5.65,18.45,0,4.07-.82,8.08-2.44,12.05-1.63,3.97-4.27,7.47-7.93,10.53-3.66,3.05-8.44,5.54-14.34,7.47-5.9,1.94-13.02,2.9-21.35,2.9-7.73,0-14.9-.86-21.51-2.59-6.61-1.73-12.46-4.47-17.54-8.23-5.09-3.76-9.05-8.59-11.9-14.49-2.85-5.89-4.27-13.01-4.27-21.35h-.69c-.46,1.91-.94,3.8-1.47,5.67-3.89,13.66-9.82,25.59-17.81,35.78-1.22,1.56-2.51,3.05-3.84,4.5,3.7,5.04,7.97,9.46,12.83,13.23,8.13,6.3,17.69,10.98,28.68,14.03,10.98,3.05,22.67,4.57,35.08,4.57,10.78,0,21.35-1.28,31.73-3.82,10.37-2.54,19.62-6.56,27.76-12.05,8.13-5.49,14.69-12.56,19.67-21.2,4.98-8.64,7.47-19.07,7.47-31.27,0-5.69-.87-11.39-2.6-17.08"></path><path class="cls-1" d="M82.6,261.68l-1.59,1.37c-.94-1.07-2.14-1.59-3.58-1.59-1.31,0-2.42.45-3.3,1.33s-1.31,1.99-1.31,3.32.43,2.44,1.31,3.32c.88.88,1.99,1.31,3.3,1.31,1.48,0,2.7-.54,3.62-1.63l1.58,1.37c-1.28,1.5-3.15,2.38-5.2,2.38-1.93,0-3.58-.64-4.93-1.91-1.33-1.29-2.01-2.91-2.01-4.84s.67-3.54,2.01-4.84c1.35-1.29,3-1.93,4.93-1.93,2.08,0,3.81.79,5.18,2.34Z"></path><path class="cls-1" d="M91.39,270.94c-1.33-1.29-2.01-2.91-2.01-4.82s.67-3.53,2.01-4.82c1.33-1.31,2.96-1.97,4.89-1.97s3.56.66,4.89,1.97c1.35,1.29,2.03,2.91,2.03,4.82s-.67,3.53-2.01,4.82c-1.33,1.29-2.98,1.95-4.91,1.95s-3.56-.66-4.89-1.95ZM93,269.44c.88.88,1.99,1.33,3.28,1.33s2.38-.45,3.26-1.33c.88-.9,1.33-2.01,1.33-3.32s-.45-2.42-1.33-3.32c-.88-.9-1.97-1.35-3.26-1.35s-2.4.45-3.28,1.35c-.88.9-1.31,2.01-1.31,3.32s.43,2.44,1.31,3.32Z"></path><path class="cls-1" d="M110.98,272.63v-13.56l8.91,8.74v-8.25h2.34v13.56l-8.91-8.7v8.21h-2.34Z"></path><path class="cls-1" d="M131.45,268.77c.68,1.33,1.76,1.99,3.28,1.99,1.63,0,2.21-.86,2.21-1.71,0-.58-.21-.98-.75-1.33-.54-.38-.94-.54-1.91-.9-1.2-.45-1.89-.79-2.64-1.39-.75-.62-1.11-1.46-1.11-2.57s.39-1.89,1.16-2.55c.79-.66,1.74-.97,2.89-.97,1.78,0,3.13.71,4.03,2.12l-1.67,1.14c-.51-.77-1.28-1.16-2.33-1.16s-1.78.58-1.78,1.39c0,.54.23.81.54,1.12.21.15.73.38.98.51l.67.26.77.3c1.24.51,2.12,1.05,2.66,1.63.54.58.83,1.37.83,2.34,0,2.31-1.59,3.86-4.58,3.86-2.42,0-4.2-1.12-5.03-2.98l1.76-1.11Z"></path><path class="cls-1" d="M149.06,272.63v-10.95h-3.54v-2.12h9.43v2.12h-3.54v10.95h-2.34Z"></path><path class="cls-1" d="M162.39,272.63v-13.07h5.08c1.18,0,2.17.39,3,1.2.83.79,1.24,1.76,1.24,2.94,0,1.71-.96,3.11-2.38,3.71l3.17,5.21h-2.64l-2.79-4.65h-2.33v4.65h-2.34ZM164.73,265.88h2.49c1.28,0,2.16-.88,2.16-2.14s-.84-2.06-1.97-2.06h-2.68v4.2Z"></path><path class="cls-1" d="M179.79,259.56h2.34v7.82c0,2.25,1.11,3.34,2.96,3.34s2.94-1.09,2.94-3.34v-7.82h2.34v8.06c0,1.67-.49,2.96-1.48,3.86-.99.9-2.25,1.35-3.81,1.35s-2.83-.45-3.83-1.35c-.99-.9-1.48-2.19-1.48-3.86v-8.06Z"></path><path class="cls-1" d="M201.26,272.63v-10.95h-3.54v-2.12h9.43v2.12h-3.54v10.95h-2.34Z"></path><path class="cls-1" d="M215.37,270.94c-1.33-1.29-2.01-2.91-2.01-4.82s.67-3.53,2.01-4.82c1.33-1.31,2.96-1.97,4.89-1.97s3.56.66,4.89,1.97c1.35,1.29,2.03,2.91,2.03,4.82s-.67,3.53-2.01,4.82c-1.33,1.29-2.98,1.95-4.91,1.95s-3.56-.66-4.89-1.95ZM216.99,269.44c.88.88,1.99,1.33,3.28,1.33s2.38-.45,3.26-1.33c.88-.9,1.33-2.01,1.33-3.32s-.45-2.42-1.33-3.32c-.88-.9-1.97-1.35-3.26-1.35s-2.4.45-3.28,1.35c-.88.9-1.31,2.01-1.31,3.32s.43,2.44,1.31,3.32Z"></path><path class="cls-1" d="M234.97,272.63v-13.07h5.08c1.18,0,2.17.39,3,1.2.83.79,1.24,1.76,1.24,2.94,0,1.71-.96,3.11-2.38,3.71l3.17,5.21h-2.64l-2.79-4.65h-2.33v4.65h-2.34ZM237.31,265.88h2.49c1.28,0,2.16-.88,2.16-2.14s-.84-2.06-1.97-2.06h-2.68v4.2Z"></path><path class="cls-1" d="M251,272.63l6.47-13.71,6.45,13.71h-2.49l-1.16-2.53h-5.63l-1.16,2.53h-2.48ZM255.52,268.07h3.86l-1.93-4.26-1.93,4.26Z"></path><path class="cls-1" d="M283.4,272.63v-13.07h8.33v2.12h-5.98v3.11h5.61v2.12h-5.61v3.6h6.11v2.12h-8.46Z"></path><path class="cls-1" d="M313.17,272.63v-13.07h2.34v13.07h-2.34Z"></path><path class="cls-1" d="M324.12,272.63v-13.56l8.91,8.74v-8.25h2.34v13.56l-8.91-8.7v8.21h-2.34Z"></path><path class="cls-1" d="M355.28,261.68l-1.59,1.37c-.94-1.07-2.14-1.59-3.58-1.59-1.31,0-2.42.45-3.3,1.33s-1.31,1.99-1.31,3.32.43,2.44,1.31,3.32c.88.88,1.99,1.31,3.3,1.31,1.48,0,2.7-.54,3.62-1.63l1.58,1.37c-1.28,1.5-3.15,2.38-5.2,2.38-1.93,0-3.58-.64-4.93-1.91-1.33-1.29-2.01-2.91-2.01-4.84s.67-3.54,2.01-4.84c1.35-1.29,3-1.93,4.93-1.93,2.08,0,3.81.79,5.18,2.34Z"></path><path class="cls-1" d="M364.07,270.94c-1.33-1.29-2.01-2.91-2.01-4.82s.67-3.53,2.01-4.82c1.33-1.31,2.96-1.97,4.89-1.97s3.56.66,4.89,1.97c1.35,1.29,2.03,2.91,2.03,4.82s-.67,3.53-2.01,4.82c-1.33,1.29-2.98,1.95-4.91,1.95s-3.56-.66-4.89-1.95ZM365.68,269.44c.88.88,1.99,1.33,3.28,1.33s2.38-.45,3.26-1.33c.88-.9,1.33-2.01,1.33-3.32s-.45-2.42-1.33-3.32c-.88-.9-1.97-1.35-3.26-1.35s-2.4.45-3.28,1.35c-.88.9-1.31,2.01-1.31,3.32s.43,2.44,1.31,3.32Z"></path><path class="cls-1" d="M383.66,272.63v-13.07h5.08c1.18,0,2.17.39,3,1.2.83.79,1.24,1.76,1.24,2.94,0,1.71-.96,3.11-2.38,3.71l3.17,5.21h-2.64l-2.79-4.65h-2.33v4.65h-2.34ZM386.01,265.88h2.49c1.28,0,2.16-.88,2.16-2.14s-.84-2.06-1.97-2.06h-2.68v4.2Z"></path><path class="cls-1" d="M401.21,272.63v-13.07h4.99c1.11,0,2.1.39,2.96,1.18.86.79,1.29,1.82,1.29,3.08s-.43,2.23-1.29,3.04c-.84.81-1.84,1.2-2.96,1.2h-2.64v4.58h-2.34ZM403.56,265.94h2.53c1.05,0,2.04-.77,2.04-2.12s-.99-2.14-2.04-2.14h-2.53v4.26Z"></path><path class="cls-1" d="M419.49,270.94c-1.33-1.29-2.01-2.91-2.01-4.82s.67-3.53,2.01-4.82c1.33-1.31,2.96-1.97,4.89-1.97s3.56.66,4.89,1.97c1.35,1.29,2.03,2.91,2.03,4.82s-.67,3.53-2.01,4.82c-1.33,1.29-2.98,1.95-4.91,1.95s-3.56-.66-4.89-1.95ZM421.11,269.44c.88.88,1.99,1.33,3.28,1.33s2.38-.45,3.26-1.33c.88-.9,1.33-2.01,1.33-3.32s-.45-2.42-1.33-3.32c-.88-.9-1.97-1.35-3.26-1.35s-2.4.45-3.28,1.35c-.88.9-1.31,2.01-1.31,3.32s.43,2.44,1.31,3.32Z"></path><path class="cls-1" d="M439.09,272.63v-13.07h5.08c1.18,0,2.17.39,3,1.2.83.79,1.24,1.76,1.24,2.94,0,1.71-.96,3.11-2.38,3.71l3.17,5.21h-2.64l-2.79-4.65h-2.33v4.65h-2.34ZM441.43,265.88h2.49c1.28,0,2.16-.88,2.16-2.14s-.84-2.06-1.97-2.06h-2.68v4.2Z"></path><path class="cls-1" d="M455.12,272.63l6.47-13.71,6.45,13.71h-2.49l-1.16-2.53h-5.63l-1.16,2.53h-2.48ZM459.64,268.07h3.86l-1.93-4.26-1.93,4.26Z"></path><path class="cls-1" d="M475.48,272.63v-13.07h4.67c2.16,0,3.84.6,5.04,1.82,1.22,1.2,1.82,2.78,1.82,4.74s-.6,3.54-1.8,4.73c-1.2,1.18-2.89,1.78-5.04,1.78h-4.69ZM477.82,270.51h2.18c3.24,0,4.67-1.71,4.67-4.39s-1.41-4.44-4.69-4.44h-2.16v8.83Z"></path><path class="cls-1" d="M496.16,270.94c-1.33-1.29-2.01-2.91-2.01-4.82s.67-3.53,2.01-4.82c1.33-1.31,2.96-1.97,4.89-1.97s3.56.66,4.89,1.97c1.35,1.29,2.03,2.91,2.03,4.82s-.67,3.53-2.01,4.82c-1.33,1.29-2.98,1.95-4.91,1.95s-3.56-.66-4.89-1.95ZM497.77,269.44c.88.88,1.99,1.33,3.28,1.33s2.38-.45,3.26-1.33c.88-.9,1.33-2.01,1.33-3.32s-.45-2.42-1.33-3.32c-.88-.9-1.97-1.35-3.26-1.35s-2.4.45-3.28,1.35c-.88.9-1.31,2.01-1.31,3.32s.43,2.44,1.31,3.32Z"></path><path class="cls-1" d="M515.75,272.63v-13.07h5.08c1.18,0,2.17.39,3,1.2.83.79,1.24,1.76,1.24,2.94,0,1.71-.96,3.11-2.38,3.71l3.17,5.21h-2.64l-2.79-4.65h-2.33v4.65h-2.34ZM518.09,265.88h2.49c1.28,0,2.16-.88,2.16-2.14s-.84-2.06-1.97-2.06h-2.68v4.2Z"></path><path class="cls-1" d="M531.78,272.63l6.47-13.71,6.45,13.71h-2.49l-1.16-2.53h-5.63l-1.16,2.53h-2.48ZM536.3,268.07h3.86l-1.93-4.26-1.93,4.26Z"></path></g></svg>